<?xml version="1.0" standalone="no"?>
<!DOCTYPE svg PUBLIC "-//W3C//DTD SVG 20010904//EN"
 "http://www.w3.org/TR/2001/REC-SVG-20010904/DTD/svg10.dtd">
<svg version="1.0" xmlns="http://www.w3.org/2000/svg"
 width="1801.000000pt" height="612.000000pt" viewBox="0 0 1801.000000 612.000000"
 preserveAspectRatio="xMidYMid meet">

<g transform="translate(0.000000,612.000000) scale(0.100000,-0.100000)"
fill="#000000" stroke="none">
<path d="M6075 5406 c-76 -20 -103 -33 -192 -92 -98 -65 -163 -136 -205 -224
-60 -124 -49 -308 26 -430 44 -72 134 -141 223 -171 95 -33 248 -34 348 -2
181 57 322 184 374 335 93 270 -58 511 -364 584 -73 17 -143 17 -210 0z"/>
<path d="M16800 5341 c-104 -34 -170 -116 -170 -211 0 -139 149 -248 286 -211
201 54 233 310 51 402 -44 23 -128 33 -167 20z m149 -61 c101 -51 128 -168 60
-254 -63 -80 -202 -88 -283 -17 -27 24 -56 86 -56 121 0 35 29 97 57 122 54
49 156 62 222 28z"/>
<path d="M16760 5136 c0 -109 1 -116 20 -116 17 0 20 7 20 45 0 41 2 45 24 45
25 0 60 -35 71 -71 4 -13 16 -19 36 -19 16 0 29 2 29 5 0 13 -54 85 -64 85 -6
0 4 9 22 20 24 15 32 27 32 48 0 54 -20 66 -109 70 l-81 4 0 -116z m135 44 c0
-23 -4 -25 -47 -28 -48 -3 -48 -3 -48 28 0 31 0 31 48 28 43 -3 47 -5 47 -28z"/>
<path d="M4432 4950 c-322 -41 -580 -180 -808 -439 -118 -134 -238 -288 -361
-463 -53 -76 -99 -138 -102 -138 -3 0 -47 40 -98 89 -278 268 -540 423 -825
487 -104 24 -346 24 -457 1 -322 -69 -522 -229 -671 -539 -60 -125 -94 -241
-110 -373 -44 -371 159 -785 493 -1003 150 -98 312 -142 521 -142 278 1 493
74 728 250 157 117 337 313 470 510 l16 25 134 -131 c392 -386 670 -580 928
-650 128 -35 386 -45 529 -20 391 68 722 319 861 652 79 190 111 430 91 679
-38 484 -187 786 -485 987 -156 104 -304 167 -476 202 -97 19 -285 27 -378 16z
m303 -456 c129 -32 225 -85 324 -178 106 -102 173 -219 215 -376 72 -268 56
-557 -40 -741 -54 -103 -185 -224 -307 -284 -128 -62 -198 -79 -337 -79 -296
0 -527 135 -947 553 -95 94 -173 176 -173 182 0 30 324 473 456 623 162 186
336 290 526 316 78 10 203 3 283 -16z m-2612 -429 c148 -31 322 -120 484 -247
113 -89 303 -266 303 -282 0 -8 -33 -58 -74 -112 -227 -303 -456 -489 -666
-538 -77 -19 -198 -20 -272 -5 -153 33 -296 151 -372 308 -61 125 -80 216 -73
345 9 166 61 292 161 391 128 128 319 181 509 140z"/>
<path d="M8620 4910 c-327 -35 -592 -149 -781 -339 -165 -166 -270 -386 -314
-656 -22 -133 -20 -386 4 -527 45 -262 169 -502 341 -662 299 -276 782 -380
1288 -276 131 27 255 71 411 146 159 76 230 127 268 192 l28 47 3 342 c2 231
-1 356 -8 384 -17 63 -83 127 -150 146 -71 20 -679 31 -784 15 -127 -20 -194
-95 -184 -204 6 -63 31 -96 94 -128 48 -24 54 -25 312 -28 l262 -3 0 -200 0
-200 -82 -38 c-200 -93 -406 -137 -593 -128 -209 11 -357 69 -481 192 -117
116 -185 254 -219 449 -20 116 -20 356 0 471 43 248 178 451 363 548 199 105
486 114 669 21 89 -45 149 -102 232 -219 35 -49 78 -105 95 -124 88 -95 241
-96 337 -1 83 83 88 176 17 322 -33 69 -56 99 -136 178 -82 81 -113 104 -197
147 -115 58 -224 95 -344 118 -103 19 -338 27 -451 15z"/>
<path d="M11076 4909 c-164 -17 -321 -64 -446 -132 -30 -17 -91 -67 -136 -111
-125 -124 -176 -249 -176 -424 0 -172 47 -302 149 -408 138 -144 283 -209 718
-319 288 -73 343 -92 423 -146 97 -64 132 -130 132 -249 0 -84 -31 -149 -101
-215 -120 -112 -345 -162 -544 -120 -170 36 -254 111 -351 311 -36 74 -80 151
-97 171 -79 90 -212 97 -306 16 -101 -86 -93 -265 19 -454 172 -290 515 -436
970 -415 318 14 556 109 721 284 120 128 175 261 186 447 18 313 -133 531
-457 663 -111 44 -210 74 -481 142 -279 71 -382 112 -453 183 -72 72 -85 158
-38 248 71 137 276 210 504 181 162 -20 255 -84 340 -234 113 -199 149 -231
265 -226 92 4 143 37 186 118 26 50 29 62 25 132 -12 207 -204 413 -470 504
-152 51 -390 73 -582 53z"/>
<path d="M15680 4909 c-424 -49 -772 -306 -926 -684 -126 -307 -137 -728 -30
-1048 110 -328 344 -585 622 -686 244 -88 580 -105 831 -40 94 23 246 95 327
153 70 50 178 159 225 229 111 163 162 378 112 475 -40 78 -113 122 -201 122
-97 0 -148 -40 -200 -155 -104 -231 -149 -295 -256 -368 -117 -80 -257 -115
-415 -103 -199 13 -349 94 -455 242 -98 137 -142 293 -151 539 -16 433 109
724 374 872 81 45 179 67 298 67 262 0 412 -98 570 -373 87 -150 145 -190 264
-178 68 7 122 42 158 104 86 147 -29 412 -257 596 -233 187 -561 274 -890 236z"/>
<path d="M12607 4870 c-111 -19 -177 -91 -177 -194 0 -70 18 -114 59 -149 61
-51 106 -57 438 -57 l303 0 0 -910 c0 -619 3 -925 11 -960 14 -64 61 -127 119
-160 37 -21 58 -25 120 -25 111 1 183 45 227 140 17 38 18 91 21 978 l2 937
295 0 c309 0 372 6 427 43 99 67 113 212 29 296 -68 68 -26 65 -971 67 -470 1
-876 -2 -903 -6z"/>
<path d="M6321 4279 c-65 -11 -144 -49 -190 -92 -94 -89 -93 -230 2 -314 120
-105 376 -72 465 61 28 42 32 56 32 115 -1 167 -124 260 -309 230z"/>
<path d="M6312 3690 c-183 -38 -274 -167 -211 -297 25 -52 66 -88 139 -122 73
-34 210 -36 280 -5 122 56 172 151 139 267 -29 107 -206 186 -347 157z"/>
<path d="M6065 3146 c-88 -33 -137 -127 -116 -222 15 -66 55 -113 133 -154 53
-28 76 -35 144 -38 137 -7 204 38 219 148 13 96 -38 197 -124 244 -66 35 -190
46 -256 22z"/>
<path d="M5694 2691 c-43 -26 -61 -55 -75 -117 -23 -102 14 -171 118 -217 98
-43 160 -52 224 -34 95 28 134 96 115 201 -9 50 -84 128 -148 156 -75 33 -192
38 -234 11z"/>
<path d="M1201 1564 c-143 -52 -215 -169 -215 -349 0 -189 89 -322 239 -356
116 -26 279 6 355 70 l35 29 0 122 c0 154 4 150 -157 150 -114 0 -118 -1 -134
-25 -34 -52 12 -85 119 -85 l47 0 0 -59 0 -60 -57 -21 c-43 -16 -74 -21 -119
-18 -119 7 -183 81 -192 224 -11 175 65 284 199 284 64 0 100 -21 145 -82 44
-61 78 -72 111 -34 13 15 23 33 23 41 0 50 -58 122 -125 158 -54 28 -209 35
-274 11z"/>
<path d="M1757 1562 c-15 -17 -17 -56 -17 -349 0 -307 1 -331 18 -346 24 -22
65 -21 85 1 15 17 17 56 17 349 0 307 -1 331 -18 346 -24 22 -65 21 -85 -1z"/>
<path d="M2566 1558 c-14 -19 -16 -66 -16 -350 0 -363 0 -362 64 -356 24 2 34
10 45 35 l14 32 38 -31 c68 -55 173 -51 239 8 60 55 83 126 78 244 -5 103 -23
153 -72 199 -26 25 -111 52 -143 46 -10 -2 -30 -6 -45 -10 -15 -3 -43 -19 -63
-36 l-35 -31 0 108 c0 128 -11 158 -57 162 -23 2 -35 -3 -47 -20z m274 -283
c85 -44 93 -242 13 -305 -49 -38 -128 -17 -160 43 -24 43 -23 160 1 205 18 35
69 72 99 72 10 0 31 -7 47 -15z"/>
<path d="M3700 1561 c-6 -13 -10 -141 -10 -350 0 -362 0 -361 60 -361 58 0 60
11 60 365 0 360 -1 365 -65 365 -24 0 -38 -6 -45 -19z"/>
<path d="M4285 1556 c-58 -27 -78 -47 -100 -99 -31 -76 -13 -161 45 -210 40
-34 77 -50 183 -78 100 -27 137 -58 137 -114 0 -49 -44 -91 -104 -100 -76 -12
-124 14 -157 83 -29 62 -47 82 -74 82 -33 0 -55 -31 -55 -77 0 -55 50 -130
110 -163 40 -22 56 -25 150 -25 88 0 111 3 145 22 77 41 117 106 117 192 1
111 -50 169 -184 210 -140 42 -171 56 -191 83 -18 24 -18 30 -7 58 16 38 56
60 110 60 64 0 91 -19 130 -92 22 -41 49 -54 80 -38 47 25 46 95 -2 156 -58
73 -229 99 -333 50z"/>
<path d="M6760 1560 c-41 -41 -14 -110 42 -110 55 0 81 83 36 114 -30 21 -54
20 -78 -4z"/>
<path d="M8106 1558 c-14 -19 -16 -69 -16 -343 0 -274 2 -324 16 -343 31 -45
104 -16 104 42 0 16 2 16 20 -6 28 -36 80 -58 140 -58 58 0 93 15 131 57 96
103 99 318 5 421 -34 38 -75 54 -136 54 -62 0 -90 -10 -132 -50 l-28 -26 0
115 c0 131 -11 159 -60 159 -18 0 -34 -8 -44 -22z m275 -284 c60 -30 90 -165
55 -248 -38 -92 -146 -102 -198 -18 -16 25 -21 51 -22 101 0 83 25 138 75 163
42 22 52 22 90 2z"/>
<path d="M8679 1564 c-11 -14 -14 -79 -17 -338 -2 -367 -2 -371 63 -371 64 0
65 6 65 360 0 349 -2 358 -61 363 -24 2 -40 -2 -50 -14z"/>
<path d="M11774 1554 c-43 -42 -15 -104 47 -104 53 0 78 71 39 110 -27 27 -56
25 -86 -6z"/>
<path d="M13753 1564 c-65 -24 -135 -93 -169 -166 -27 -58 -29 -72 -29 -183 0
-115 1 -123 33 -189 60 -127 139 -176 281 -176 122 1 201 47 247 145 29 62 31
108 4 135 -38 38 -67 21 -109 -64 -26 -53 -39 -68 -74 -85 -102 -49 -200 -3
-237 112 -14 45 -15 188 -1 236 27 89 106 148 183 138 54 -7 85 -31 131 -100
31 -46 44 -57 66 -57 33 0 61 27 61 59 0 61 -53 134 -129 179 -37 22 -59 26
-130 29 -59 2 -99 -2 -128 -13z"/>
<path d="M16515 1555 c-30 -29 -32 -58 -5 -85 37 -37 93 -20 105 32 5 21 1 33
-19 52 -31 32 -50 33 -81 1z"/>
<path d="M16758 1558 c-10 -17 -14 -102 -16 -323 -4 -353 0 -378 60 -383 67
-6 68 -1 68 363 0 360 -1 365 -65 365 -25 0 -38 -6 -47 -22z"/>
<path d="M5902 1547 c-19 -20 -22 -35 -22 -100 0 -69 -2 -77 -19 -77 -36 0
-51 -12 -51 -39 0 -33 17 -51 46 -51 23 0 23 -1 26 -186 l3 -186 33 -29 c29
-26 40 -29 98 -29 88 0 124 19 124 67 0 30 -29 44 -75 36 -60 -10 -65 5 -65
179 l0 148 31 0 c42 0 69 17 69 43 0 33 -19 47 -62 47 l-38 0 0 79 c0 74 -2
81 -26 100 -34 27 -46 26 -72 -2z"/>
<path d="M9672 1563 c-22 -9 -33 -50 -21 -77 14 -30 34 -36 132 -36 l77 0 0
-278 c0 -311 2 -322 64 -322 65 0 66 4 66 318 l0 282 90 0 c77 0 93 3 110 20
25 25 26 62 2 83 -16 15 -49 17 -263 16 -134 0 -250 -3 -257 -6z"/>
<path d="M2137 1376 c-95 -26 -151 -93 -170 -199 -31 -185 72 -327 239 -327
152 0 244 97 244 259 0 93 -14 141 -58 191 -62 73 -160 102 -255 76z m117
-101 c52 -25 71 -67 71 -160 0 -60 -4 -88 -18 -108 -25 -38 -61 -59 -102 -59
-80 0 -119 62 -113 182 3 85 21 123 69 147 32 17 54 16 93 -2z"/>
<path d="M3266 1379 c-107 -26 -172 -123 -118 -172 29 -27 46 -20 91 33 42 49
43 50 100 50 65 0 86 -15 97 -67 7 -34 18 -29 -144 -68 -57 -14 -113 -31 -124
-39 -77 -54 -77 -184 0 -241 21 -16 43 -20 103 -20 67 0 81 3 126 31 l50 31
27 -33 c49 -62 114 -40 102 33 -4 21 -10 110 -14 198 -8 182 -20 216 -84 248
-44 21 -157 30 -212 16z m174 -293 c0 -79 -41 -138 -104 -150 -66 -13 -119 36
-101 93 8 27 34 40 115 61 88 23 90 23 90 -4z"/>
<path d="M4823 1380 c-12 -5 -25 -20 -28 -33 -4 -14 -5 -110 -3 -214 3 -162 6
-193 21 -216 58 -88 211 -90 278 -5 16 20 16 20 23 -8 11 -41 24 -54 57 -54
55 0 59 20 59 268 l0 223 -25 24 c-29 30 -49 31 -75 5 -18 -18 -20 -34 -21
-142 0 -171 -9 -215 -48 -250 -55 -49 -121 -30 -141 40 -5 20 -10 103 -10 183
0 152 -5 172 -45 182 -11 3 -30 2 -42 -3z"/>
<path d="M5455 1376 c-95 -27 -146 -117 -109 -193 25 -49 68 -77 168 -108 46
-13 90 -33 99 -43 42 -47 3 -97 -75 -97 -48 0 -52 2 -97 53 -61 69 -111 69
-111 -1 0 -80 87 -137 210 -137 127 0 198 51 208 148 8 91 -32 132 -168 173
-106 31 -130 45 -130 74 0 31 35 55 81 55 30 0 44 -7 75 -40 47 -49 68 -56
101 -35 21 14 24 22 19 48 -8 40 -32 66 -81 88 -57 25 -131 31 -190 15z"/>
<path d="M6323 1381 c-74 -19 -143 -85 -143 -137 0 -29 41 -58 70 -49 11 3 20
10 20 15 0 5 15 25 34 44 30 33 38 36 87 36 30 0 59 -4 65 -8 16 -10 34 -48
34 -71 0 -22 -7 -24 -157 -59 -94 -22 -126 -40 -153 -85 -39 -63 -16 -151 49
-194 62 -42 185 -25 252 33 14 13 19 10 43 -21 51 -67 130 -33 105 46 -6 18
-14 107 -18 196 -7 181 -14 201 -84 236 -40 20 -155 30 -204 18z m167 -315 c0
-61 -33 -107 -90 -125 -38 -12 -47 -12 -69 0 -14 8 -32 27 -41 41 -13 25 -13
29 6 55 16 21 39 33 100 50 43 12 82 22 87 22 4 1 7 -19 7 -43z"/>
<path d="M6780 1383 c-37 -13 -40 -32 -40 -263 0 -250 4 -270 59 -270 58 0 61
13 61 266 0 169 -3 234 -12 246 -15 19 -47 28 -68 21z"/>
<path d="M7010 1370 c-19 -19 -20 -33 -20 -253 0 -214 2 -235 18 -250 24 -22
65 -21 85 1 14 15 17 42 17 148 0 71 3 146 7 167 8 54 54 97 101 97 76 0 85
-24 92 -238 5 -187 7 -192 62 -192 54 0 60 27 56 237 -2 158 -6 193 -21 221
-48 88 -178 104 -261 32 -41 -36 -46 -37 -46 -6 0 25 -32 56 -57 56 -7 0 -22
-9 -33 -20z"/>
<path d="M7686 1379 c-107 -26 -172 -123 -118 -172 29 -27 46 -20 91 33 42 49
43 50 100 50 65 0 86 -15 97 -67 7 -34 18 -29 -144 -68 -113 -27 -146 -44
-168 -86 -21 -41 -18 -115 6 -154 46 -74 172 -88 268 -28 l49 30 27 -33 c29
-36 59 -43 90 -21 15 11 17 21 12 53 -4 21 -10 111 -14 199 -8 182 -20 216
-84 248 -44 21 -157 30 -212 16z m171 -319 c-8 -65 -29 -95 -83 -116 -42 -16
-48 -16 -79 -1 -53 25 -60 93 -12 119 21 11 138 44 166 47 11 1 13 -10 8 -49z"/>
<path d="M9075 1381 c-77 -20 -142 -78 -166 -148 -8 -21 -14 -74 -14 -118 0
-66 5 -90 26 -136 43 -91 110 -129 228 -129 100 1 173 42 200 112 13 36 5 57
-26 64 -19 5 -32 -1 -61 -29 -66 -65 -130 -78 -189 -40 -24 16 -53 71 -53 102
0 20 5 21 128 21 129 0 189 9 204 32 4 7 8 34 8 59 0 68 -43 147 -100 181 -49
30 -133 43 -185 29z m124 -112 c24 -23 41 -59 41 -90 0 -18 -8 -19 -110 -19
-122 0 -123 1 -96 64 8 18 24 41 37 50 34 23 100 21 128 -5z"/>
<path d="M10368 1377 c-66 -19 -112 -58 -144 -123 -23 -46 -28 -70 -28 -133 0
-93 15 -141 63 -194 49 -55 101 -77 181 -77 77 0 130 22 177 71 115 121 83
366 -57 436 -57 29 -132 36 -192 20z m128 -106 c42 -26 64 -77 64 -150 0 -112
-42 -171 -120 -171 -77 0 -120 59 -120 164 0 135 86 212 176 157z"/>
<path d="M10804 1365 l-26 -26 4 -192 c3 -170 5 -196 23 -226 26 -44 78 -71
137 -71 59 0 86 11 132 50 34 30 36 31 36 10 0 -12 5 -30 10 -41 15 -26 75
-26 90 0 15 30 13 473 -2 493 -24 30 -56 31 -83 4 -24 -24 -25 -29 -25 -159 0
-161 -5 -189 -38 -222 -29 -29 -62 -40 -97 -31 -44 11 -53 46 -56 229 -4 163
-5 169 -28 188 -31 25 -47 24 -77 -6z"/>
<path d="M11370 1370 c-19 -19 -20 -33 -20 -254 0 -258 2 -266 60 -266 49 0
58 27 62 195 3 116 8 157 21 182 21 39 55 50 111 36 48 -13 65 -8 77 24 19 49
-34 96 -108 96 -39 0 -50 -5 -74 -31 -33 -37 -39 -39 -39 -13 0 20 -35 51 -57
51 -7 0 -22 -9 -33 -20z"/>
<path d="M11779 1371 c-24 -19 -24 -22 -27 -234 -3 -176 -1 -221 12 -251 14
-35 18 -37 53 -34 59 5 63 20 63 271 l0 218 -25 24 c-29 30 -45 31 -76 6z"/>
<path d="M12107 1376 c-78 -22 -117 -71 -117 -149 0 -75 35 -106 165 -148 112
-35 125 -44 125 -84 0 -28 -5 -37 -30 -50 -58 -30 -125 -8 -165 54 -28 45 -61
54 -89 25 -37 -37 0 -114 74 -151 50 -26 161 -32 221 -12 53 18 97 65 108 117
22 103 -30 160 -183 198 -74 18 -116 46 -116 74 0 27 38 50 83 50 33 0 46 -7
83 -45 24 -25 52 -45 63 -45 27 0 51 26 51 55 0 30 -45 84 -85 100 -49 21
-135 26 -188 11z"/>
<path d="M12529 1371 c-24 -19 -24 -21 -27 -240 -4 -256 2 -281 63 -281 57 0
65 23 65 178 0 199 20 252 96 252 60 0 66 -18 72 -220 5 -197 9 -210 61 -210
53 0 61 22 61 171 0 74 4 151 9 172 13 53 46 87 87 87 57 0 64 -23 64 -195 0
-200 10 -234 71 -235 54 0 59 18 59 229 0 209 -7 246 -54 276 -66 43 -161 36
-218 -17 -30 -28 -31 -28 -45 -8 -22 31 -72 52 -123 52 -52 0 -81 -12 -122
-50 -26 -24 -28 -24 -28 -6 0 49 -54 75 -91 45z"/>
<path d="M14415 1380 c-56 -14 -83 -29 -118 -64 -98 -97 -91 -316 13 -410 49
-44 97 -59 180 -54 95 5 154 42 195 123 27 52 30 68 30 144 -1 73 -5 94 -28
139 -33 63 -89 107 -158 121 -56 12 -71 12 -114 1z m113 -110 c43 -27 62 -74
62 -156 0 -110 -42 -167 -123 -166 -29 1 -47 8 -68 28 -72 69 -63 247 15 295
40 24 73 24 114 -1z"/>
<path d="M14839 1371 c-23 -19 -24 -25 -27 -180 -4 -198 6 -255 53 -301 59
-57 168 -55 236 7 38 35 39 35 39 11 0 -31 29 -58 61 -58 47 0 49 8 49 266 0
240 0 243 -22 258 -31 22 -45 20 -73 -9 -24 -23 -25 -28 -25 -170 0 -165 -10
-204 -59 -229 -50 -26 -93 -19 -114 18 -7 13 -14 85 -17 194 -5 168 -6 174
-29 193 -29 24 -43 24 -72 0z"/>
<path d="M15399 1371 c-24 -19 -24 -21 -27 -234 -4 -255 3 -287 62 -287 58 0
66 22 66 188 0 154 10 197 51 226 34 23 92 21 115 -5 17 -19 20 -42 24 -199 6
-196 10 -210 65 -210 57 0 60 12 60 224 0 159 -3 196 -17 221 -54 99 -170 120
-264 49 -37 -28 -44 -31 -44 -16 0 47 -54 73 -91 43z"/>
<path d="M16095 1379 c-66 -16 -112 -55 -146 -125 -30 -60 -31 -68 -27 -158 3
-83 7 -100 34 -142 69 -113 248 -141 362 -57 57 43 81 123 46 157 -23 24 -51
19 -71 -11 -10 -14 -32 -41 -49 -60 -27 -28 -39 -33 -76 -33 -54 0 -85 21
-109 74 -36 80 -14 203 45 241 32 21 89 22 120 2 13 -9 34 -32 46 -51 17 -28
28 -36 50 -36 31 0 60 22 60 46 0 59 -63 125 -142 149 -57 17 -84 17 -143 4z"/>
<path d="M16519 1371 c-24 -19 -24 -21 -27 -243 -3 -260 0 -273 63 -273 63 0
66 13 63 273 -3 222 -3 224 -27 243 -13 10 -29 19 -36 19 -7 0 -23 -9 -36 -19z"/>
</g>
</svg>
